#!OML:ASF H:\MichaelJackson\Top Level 1\Subject 1\Session 1\male.ASF
:FULLY-SPECIFIED
:DEGREES
1278
root -7.38049 16.7438 17.2108 -172.943 -208.874 -192.6
lowerback 1.97482 1.25558 7.93386
upperback 1.4598 1.81741 3.93294
thorax 0.518746 0.964987 -0.407135
lowerneck -6.23687 -5.74065 -1.2765
upperneck 9.41125 -7.9539 3.78468
head 4.46587 -3.77273 1.02938
rclavicle 3.77691e-015 9.93923e-016
rhumerus -45.7672 4.95962 -92.1102
rradius 51.9528
rwrist -0.290096
rhand -26.9486 -26.2149
rfingers 7.12502
rthumb -0.370486 -56.1943
lclavicle 3.77691e-015 9.93923e-016
lhumerus -26.4155 -19.0437 90.7568
lradius 91.204
lwrist 47.8655
lhand -15.1796 15.5652
lfingers 7.12502
lthumb 10.9915 45.2575
rfemur -22.5698 -11.9808 35.8297
rtibia 35.1834
rfoot -14.2979 30.5641
rtoes 48.1643
lfemur -48.0956 -3.5742 -3.90029
ltibia 56.0228
lfoot -11.9417 -7.48504
ltoes 2.17016
1279
root -7.34346 16.7334 17.2349 -172.798 -208.568 -192.558
lowerback 1.992 1.24194 7.96009
upperback 1.48182 1.79923 3.90839
thorax 0.532466 0.956812 -0.446762
lowerneck -6.06592 -5.66701 -1.28475
upperneck 8.84092 -7.83611 3.80716
head 4.22326 -3.72642 1.05665
rclavicle 1.39994e-013 -1.70955e-014
rhumerus -45.5714 5.14822 -92.1609
rradius 52.2086
rwrist 0.15589
rhand -26.9709 -25.9202
rfingers 7.12502
rthumb -0.391985 -55.8995
lclavicle 1.39994e-013 -1.70955e-014
lhumerus -27.0485 -19.1822 90.8044
lradius 90.0361
lwrist 46.0708
lhand -14.867 15.2918
lfingers 7.12502
lthumb 11.293 44.9678
rfemur -22.575 -12.0226 35.717
rtibia 35.3159
rfoot -14.286 30.9057
rtoes 48.3864
lfemur -47.613 -2.88857 -4.27366
ltibia 55.7539
lfoot -12.9578 -7.1897
ltoes 1.86332
1280
root -7.30686 16.7245 17.2593 -172.695 -208.383 -192.42
lowerback 2.07278 1.17552 7.87094
upperback 1.53689 1.714 3.89723
thorax 0.536021 0.914719 -0.409561
lowerneck -5.95526 -5.58179 -1.1212
upperneck 8.25524 -7.70033 3.63454
head 3.96985 -3.67363 0.988332
rclavicle 5.46658e-015 2.80286e-014
rhumerus -45.3739 5.46732 -92.1666
rradius 52.4663
rwrist 0.985754
rhand -26.4386 -25.7706
rfingers 7.12502
rthumb 0.122094 -55.7503
lclavicle 5.46658e-015 2.80286e-014
lhumerus -27.7486 -19.2535 90.9403
lradius 88.844
lwrist 43.9695
lhand -14.5988 15.2346
lfingers 7.12502
lthumb 11.5517 44.8962
rfemur -22.4718 -11.8207 35.4867
rtibia 35.4237
rfoot -14.7348 30.7431
rtoes 48.2346
lfemur -47.0889 -2.36791 -4.73511
ltibia 55.4681
lfoot -13.9165 -6.87586
ltoes 2.18427
1281
root -7.27003 16.7191 17.2854 -172.544 -208.265 -192.196
lowerback 2.11732 1.11218 7.71681
upperback 1.60173 1.62683 3.87596
thorax 0.568423 0.872112 -0.345759
lowerneck -5.82411 -5.51529 -1.18359
upperneck 7.61401 -7.58557 3.654
head 3.71797 -3.63041 1.02264
rclavicle -1.38155e-014 -6.20208e-014
rhumerus -45.1645 5.93844 -92.1217
rradius 52.8187
rwrist 1.66724
rhand -25.3252 -25.6574
rfingers 7.12502
rthumb 1.19748 -55.6338
lclavicle -1.38155e-014 -6.20208e-014
lhumerus -28.408 -19.4109 91.1443
lradius 87.587
lwrist 42.1743
lhand -14.4991 15.0339
lfingers 7.12502
lthumb 11.6478 44.6902
rfemur -22.3402 -11.2382 35.1391
rtibia 35.5089
rfoot -15.4742 30.1471
rtoes 47.8277
lfemur -46.6334 -1.85933 -5.32266
ltibia 55.1787
lfoot -14.7644 -6.71763
ltoes 2.61126
1282
root -7.23182 16.7177 17.3115 -172.355 -208.289 -191.907
lowerback 2.16128 1.01818 7.57536
upperback 1.62115 1.50185 3.78915
thorax 0.55429 0.80857 -0.356734
lowerneck -5.52833 -5.45906 -1.09478
upperneck 6.8544 -7.49219 3.65355
head 3.38823 -3.59745 1.02854
rclavicle 2.5842e-015 4.17448e-015
rhumerus -45.0602 6.02998 -92.12
rradius 53.2232
rwrist 2.93034
rhand -24.6482 -25.5627
rfingers 7.12502
rthumb 1.85136 -55.5344
lclavicle 2.5842e-015 4.17448e-015
lhumerus -29.2174 -19.6268 91.3634
lradius 86.3608
lwrist 40.5938
lhand -14.7571 15.3901
lfingers 7.12502
lthumb 11.399 45.0602
rfemur -22.2424 -10.5605 34.741
rtibia 35.595
rfoot -16.386 29.1643
rtoes 47.1185
lfemur -46.2708 -1.44323 -6.02057
ltibia 54.8763
lfoot -15.4576 -6.55884
ltoes 2.78166
1283
root -7.19212 16.7178 17.3409 -172.212 -208.402 -191.671
lowerback 2.15315 0.91995 7.5323
upperback 1.66424 1.36538 3.67915
thorax 0.596643 0.742315 -0.44399
lowerneck -5.26507 -5.41456 -0.871323
upperneck 6.05199 -7.41968 3.60141
head 3.04644 -3.57366 0.992974
rclavicle 1.28713e-014 5.36719e-015
rhumerus -44.9704 6.10716 -92.1429
rradius 53.7423
rwrist 4.04868
rhand -24.5441 -25.5284
rfingers 7.12502
rthumb 1.95192 -55.4992
lclavicle 1.28713e-014 5.36719e-015
lhumerus -29.9436 -19.8712 91.5468
lradius 85.0421
lwrist 39.2296
lhand -14.4789 15.914
lfingers 7.12502
lthumb 11.6673 45.5692
rfemur -22.1002 -9.77965 34.3852
rtibia 35.6895
rfoot -17.5628 27.9116
rtoes 45.8793
lfemur -45.9192 -1.06919 -6.69723
ltibia 54.5622
lfoot -15.9846 -6.29702
ltoes 3.30544
1284
root -7.15243 16.718 17.3713 -172.062 -208.623 -191.305
lowerback 2.17235 0.749544 7.3101
upperback 1.71954 1.13255 3.60773
thorax 0.624831 0.626142 -0.391878
lowerneck -4.9813 -5.36271 -0.871013
upperneck 5.26004 -7.32747 3.66055
head 2.72476 -3.54153 1.03268
rclavicle 2.2413e-014 9.54166e-015
rhumerus -44.9615 6.35056 -92.1798
rradius 54.3323
rwrist 5.13077
rhand -24.5537 -25.5142
rfingers 7.12502
rthumb 1.9426 -55.4851
lclavicle 2.2413e-014 9.54166e-015
lhumerus -30.7998 -19.9153 91.8072
lradius 83.7698
lwrist 38.0874
lhand -14.221 16.0262
lfingers 7.12502
lthumb 11.916 45.6671
rfemur -21.9392 -8.93155 33.9044
rtibia 35.8464
rfoot -18.768 26.3861
rtoes 44.4851
lfemur -45.529 -0.834809 -7.50784
ltibia 54.2182
lfoot -16.4144 -5.89751
ltoes 3.74874
1285
root -7.11062 16.718 17.4026 -171.86 -208.87 -190.935
lowerback 2.12685 0.587928 7.07103
upperback 1.75762 0.905964 3.56277
thorax 0.672274 0.512889 -0.302246
lowerneck -4.70935 -5.32216 -0.824652
upperneck 4.43552 -7.24842 3.65349
head 2.39388 -3.51717 1.04232
rclavicle 2.16178e-014 4.19436e-014
rhumerus -44.9904 6.53672 -92.155
rradius 55.0208
rwrist 6.11652
rhand -24.6171 -25.3871
rfingers 7.12502
rthumb 1.88136 -55.3586
lclavicle 2.16178e-014 4.19436e-014
lhumerus -31.6113 -19.9595 92.1569
lradius 82.4181
lwrist 37.3932
lhand -14.2423 16.2253
lfingers 7.12502
lthumb 11.8955 45.8674
rfemur -21.8716 -7.93897 33.4252
rtibia 36.0809
rfoot -20.0587 24.5334
rtoes 42.5949
lfemur -45.1651 -0.591954 -8.34366
ltibia 53.8388
lfoot -16.8752 -5.44631
ltoes 4.24831
1286
root -7.06946 16.7156 17.4344 -171.653 -209.123 -190.556
lowerback 2.05576 0.441351 6.73825
upperback 1.81377 0.694965 3.57124
thorax 0.752956 0.407253 -0.105565
lowerneck -4.44711 -5.29986 -0.859006
upperneck 3.59261 -7.18863 3.64958
head 2.06754 -3.50326 1.06565
rclavicle 1.24737e-014 -3.81667e-014
rhumerus -45.0942 6.86055 -92.0998
rradius 55.8366
rwrist 6.82497
rhand -24.8743 -25.3716
rfingers 7.12502
rthumb 1.63299 -55.3451
lclavicle 1.24737e-014 -3.81667e-014
lhumerus -32.365 -19.8699 92.5957
lradius 80.9626
lwrist 36.5939
lhand -14.1123 16.2354
lfingers 7.12502
lthumb 12.0208 45.8702
rfemur -21.8645 -6.85678 32.9399
rtibia 36.4235
rfoot -21.1898 22.5978
rtoes 40.7202
lfemur -44.7622 -0.437146 -9.14634
ltibia 53.4124
lfoot -17.4223 -4.91497
ltoes 4.55413
1287
root -7.02782 16.7131 17.4675 -171.482 -209.334 -190.166
lowerback 2.09169 0.317815 6.55046
upperback 1.80927 0.530673 3.42884
thorax 0.718682 0.322726 -0.146728
lowerneck -4.1044 -5.29915 -0.821519
upperneck 2.78509 -7.16794 3.75633
head 1.74592 -3.50506 1.1121
rclavicle -6.19214e-014 4.37326e-015
rhumerus -45.3531 6.92269 -92.2176
rradius 56.7088
rwrist 7.57958
rhand -25.204 -25.1537
rfingers 7.12502
rthumb 1.31454 -55.1294
lclavicle -6.19214e-014 4.37326e-015
lhumerus -33.2053 -19.925 92.88
lradius 79.3632
lwrist 35.6171
lhand -14.1421 15.8961
lfingers 7.12502
lthumb 11.9921 45.5325
rfemur -21.8882 -5.81673 32.4622
rtibia 36.9087
rfoot -22.2266 20.6347
rtoes 38.4515
lfemur -44.2567 -0.371636 -9.86612
ltibia 52.9493
lfoot -18.0286 -4.55735
ltoes 5.56634
1288
root -6.98454 16.7107 17.4965 -171.331 -209.489 -189.833
lowerback 2.09307 0.242658 6.27927
upperback 1.84025 0.424636 3.41598
thorax 0.741748 0.268013 -0.00816929
lowerneck -3.83637 -5.34821 -0.866681
upperneck 2.02433 -7.20717 3.7802
head 1.45779 -3.53804 1.14216
rclavicle -1.37658e-014 -3.04141e-014
rhumerus -45.5729 7.17065 -92.1176
rradius 57.6377
rwrist 8.02387
rhand -24.9846 -24.8636
rfingers 7.12502
rthumb 1.52647 -54.8379
lclavicle -1.37658e-014 -3.04141e-014
lhumerus -33.9684 -19.8646 93.3982
lradius 77.678
lwrist 34.4057
lhand -14.3665 15.7251
lfingers 7.12502
lthumb 11.7757 45.374
rfemur -22.0559 -4.75696 32.0518
rtibia 37.5987
rfoot -23.0721 18.6154
rtoes 36.2917
lfemur -43.7665 -0.36246 -10.4453
ltibia 52.46
lfoot -18.6055 -4.29609
ltoes 5.91804
1289
root -6.94187 16.7089 17.5265 -171.154 -209.561 -189.394
lowerback 2.22406 0.190298 6.08347
upperback 1.81505 0.364117 3.22893
thorax 0.638762 0.233469 -0.0923341
lowerneck -3.65432 -5.37277 -0.799824
upperneck 1.39834 -7.22556 3.87681
head 1.22871 -3.55551 1.17339
rclavicle -4.76089e-014 -1.86858e-014
rhumerus -45.9498 7.28742 -92.2605
rradius 58.6061
rwrist 8.46618
rhand -24.4805 -24.6404
rfingers 7.12502
rthumb 2.0133 -54.6106
lclavicle -4.76089e-014 -1.86858e-014
lhumerus -34.798 -19.9449 93.7372
lradius 75.9466
lwrist 33.0262
lhand -14.4599 15.4778
lfingers 7.12502
lthumb 11.6856 45.1319
rfemur -22.3572 -3.92432 31.5644
rtibia 38.5766
rfoot -23.6932 16.9189
rtoes 34.0434
lfemur -43.2351 -0.474748 -10.9862
ltibia 51.9635
lfoot -19.1145 -4.27868
ltoes 6.46922
